<svg width="40" height="40" viewBox="0 0 40 40" fill="none" xmlns="http://www.w3.org/2000/svg">
<g clip-path="url(#clip0_575_516)">
<path d="M20.0007 36.6663C16.4269 36.6663 13.8552 36.6646 11.8501 36.4701C9.86807 36.278 8.60015 35.9088 7.58828 35.2729C6.43178 34.5463 5.45386 33.5685 4.72717 32.412C4.09156 31.4002 3.72212 30.1322 3.5302 28.1502C3.33575 26.1451 3.33398 23.5734 3.33398 19.9997C3.33398 16.4259 3.33575 13.8542 3.5302 11.8492C3.72212 9.8671 4.09156 8.59917 4.72717 7.5873C5.45383 6.43077 6.43175 5.45285 7.58828 4.72619C8.60015 4.09058 9.86807 3.72114 11.8501 3.52922C13.8549 3.33478 16.4267 3.33301 20.0007 3.33301C23.5744 3.33301 26.1461 3.33478 28.1512 3.52922C30.1332 3.72114 31.4012 4.09058 32.413 4.72619C33.5695 5.45288 34.5473 6.4308 35.2739 7.5873C35.9097 8.59917 36.2789 9.8671 36.4711 11.8492C36.6656 13.8542 36.6673 16.4259 36.6673 19.9997C36.6673 23.5734 36.6656 26.1451 36.4711 28.1502C36.2789 30.1322 35.9097 31.4002 35.2739 32.412C34.5473 33.5685 33.5694 34.5463 32.413 35.2729C31.4012 35.9088 30.1332 36.278 28.1512 36.4701C26.1461 36.6646 23.5744 36.6663 20.0007 36.6663Z" fill="white" stroke="black" stroke-width="5"/>
<path d="M20.0007 28.3333C23.6826 28.3333 26.6673 25.3486 26.6673 21.6667C26.6673 17.9848 23.6826 15 20.0007 15C16.3188 15 13.334 17.9848 13.334 21.6667C13.334 25.3486 16.3188 28.3333 20.0007 28.3333Z" fill="white" stroke="black" stroke-width="5"/>
<path d="M28.125 13.75C29.1605 13.75 30 12.9105 30 11.875C30 10.8395 29.1605 10 28.125 10C27.0895 10 26.25 10.8395 26.25 11.875C26.25 12.9105 27.0895 13.75 28.125 13.75Z" fill="black"/>
</g>
<defs>
<clipPath id="clip0_575_516">
<rect width="40" height="40" fill="white"/>
</clipPath>
</defs>
</svg>
